<mxfile host="app.diagrams.net" modified="2023-06-19T15:44:32.224Z" agent="Mozilla/5.0 (Windows NT 10.0; Win64; x64; rv:109.0) Gecko/20100101 Firefox/114.0" etag="KT9q7nqU5-uJbdl_xFlL" version="21.5.0" type="github">
  <diagram id="C5RBs43oDa-KdzZeNtuy" name="Page-1">
    <mxGraphModel dx="2074" dy="1073" grid="1" gridSize="10" guides="1" tooltips="1" connect="1" arrows="1" fold="1" page="1" pageScale="1" pageWidth="827" pageHeight="1169" math="0" shadow="0">
      <root>
        <mxCell id="WIyWlLk6GJQsqaUBKTNV-0" />
        <mxCell id="WIyWlLk6GJQsqaUBKTNV-1" parent="WIyWlLk6GJQsqaUBKTNV-0" />
        <mxCell id="AQUPgr8N2NR4SQHCCyvK-0" value="Discord" style="rounded=1;whiteSpace=wrap;html=1;fontSize=12;glass=0;strokeWidth=1;shadow=0;" vertex="1" parent="WIyWlLk6GJQsqaUBKTNV-1">
          <mxGeometry x="330" y="755" width="120" height="40" as="geometry" />
        </mxCell>
        <mxCell id="AQUPgr8N2NR4SQHCCyvK-12" style="edgeStyle=orthogonalEdgeStyle;rounded=0;orthogonalLoop=1;jettySize=auto;html=1;entryX=0.25;entryY=1;entryDx=0;entryDy=0;" edge="1" parent="WIyWlLk6GJQsqaUBKTNV-1" source="AQUPgr8N2NR4SQHCCyvK-1" target="AQUPgr8N2NR4SQHCCyvK-7">
          <mxGeometry relative="1" as="geometry" />
        </mxCell>
        <mxCell id="AQUPgr8N2NR4SQHCCyvK-1" value="Mobile App" style="rounded=1;whiteSpace=wrap;html=1;fontSize=12;glass=0;strokeWidth=1;shadow=0;" vertex="1" parent="WIyWlLk6GJQsqaUBKTNV-1">
          <mxGeometry x="330" y="890" width="120" height="40" as="geometry" />
        </mxCell>
        <mxCell id="AQUPgr8N2NR4SQHCCyvK-2" value="Discord Server&lt;br&gt;SdR" style="rounded=1;whiteSpace=wrap;html=1;fontSize=12;glass=0;strokeWidth=1;shadow=0;" vertex="1" parent="WIyWlLk6GJQsqaUBKTNV-1">
          <mxGeometry x="100" y="740" width="120" height="40" as="geometry" />
        </mxCell>
        <mxCell id="AQUPgr8N2NR4SQHCCyvK-3" value="Web Browser" style="rounded=1;whiteSpace=wrap;html=1;fontSize=12;glass=0;strokeWidth=1;shadow=0;" vertex="1" parent="WIyWlLk6GJQsqaUBKTNV-1">
          <mxGeometry x="90" y="510" width="120" height="40" as="geometry" />
        </mxCell>
        <mxCell id="AQUPgr8N2NR4SQHCCyvK-4" value="Cloudflare Storage" style="rounded=1;whiteSpace=wrap;html=1;fontSize=12;glass=0;strokeWidth=1;shadow=0;" vertex="1" parent="WIyWlLk6GJQsqaUBKTNV-1">
          <mxGeometry x="530" y="500" width="120" height="40" as="geometry" />
        </mxCell>
        <mxCell id="AQUPgr8N2NR4SQHCCyvK-5" value="&lt;div&gt;Serverless &lt;br&gt;&lt;/div&gt;&lt;div&gt;Functions&lt;/div&gt;" style="rounded=1;whiteSpace=wrap;html=1;fontSize=12;glass=0;strokeWidth=1;shadow=0;" vertex="1" parent="WIyWlLk6GJQsqaUBKTNV-1">
          <mxGeometry x="320" y="500" width="120" height="40" as="geometry" />
        </mxCell>
        <mxCell id="AQUPgr8N2NR4SQHCCyvK-7" value="Vassalo Bot" style="swimlane;whiteSpace=wrap;html=1;startSize=60;" vertex="1" parent="WIyWlLk6GJQsqaUBKTNV-1">
          <mxGeometry x="520" y="710" width="200" height="130" as="geometry" />
        </mxCell>
        <mxCell id="AQUPgr8N2NR4SQHCCyvK-9" value="" style="endArrow=none;html=1;rounded=0;exitX=0.5;exitY=1;exitDx=0;exitDy=0;" edge="1" parent="WIyWlLk6GJQsqaUBKTNV-1" source="AQUPgr8N2NR4SQHCCyvK-7">
          <mxGeometry width="50" height="50" relative="1" as="geometry">
            <mxPoint x="600" y="830" as="sourcePoint" />
            <mxPoint x="620" y="770" as="targetPoint" />
          </mxGeometry>
        </mxCell>
        <mxCell id="AQUPgr8N2NR4SQHCCyvK-10" value="REST API" style="text;html=1;align=center;verticalAlign=middle;resizable=0;points=[];autosize=1;strokeColor=none;fillColor=none;" vertex="1" parent="WIyWlLk6GJQsqaUBKTNV-1">
          <mxGeometry x="530" y="788" width="80" height="30" as="geometry" />
        </mxCell>
        <mxCell id="AQUPgr8N2NR4SQHCCyvK-11" value="&lt;div&gt;Events&lt;/div&gt;" style="text;html=1;align=center;verticalAlign=middle;resizable=0;points=[];autosize=1;strokeColor=none;fillColor=none;" vertex="1" parent="WIyWlLk6GJQsqaUBKTNV-1">
          <mxGeometry x="640" y="788" width="60" height="30" as="geometry" />
        </mxCell>
      </root>
    </mxGraphModel>
  </diagram>
</mxfile>
